# xmcd
#
# Track frame offsets:
#	150
#	16689
#	31397
#	48499
#	66103
#	81001
#	96058
#	112952
#	128651
#	145371
#	160174
#	178103
#	195225
#	212451
#	228648
#	246230
#	261893
#
# Disc length: 3542 seconds
#
# Revision: 1
# Processed by: cddbd v1.5.2PL0 Copyright (c) Steve Scherf et al.
# Submitted via: audiograbber 1.83.01
#
DISCID=de0dd411
DTITLE=Die Cappuccinos - Ungeküsst
DYEAR=2010
DGENRE=Schlager
TTITLE0=Für den Sternenhimmel hat es nie gereicht
TTITLE1=Alles Liebe meine Süsse
TTITLE2=Zuviel Make-up auf der Seele
TTITLE3=Wenn Susanna heimlich weint
TTITLE4=Wer küsst dich in den Schlaf
TTITLE5=Lass die Erde in Flammen stehen
TTITLE6=Mach ich mich zum Clown
TTITLE7=Zum siebten Himmel
TTITLE8=Wie spricht man einen Engel an
TTITLE9=Total verliebt
TTITLE10=Ich mach dich zur Königin
TTITLE11=Amor (dich bringt kein Wort zurück)
TTITLE12=Ungeküsst
TTITLE13=Leuchtturm am Meer
TTITLE14=Baby Samba
TTITLE15=Ohne dich (halt ichs nur mit Tränen aus)
TTITLE16=Wenn Susanna heimlich weint (A Cappella Version)
EXTD=YEAR: 2010
EXTT0=
EXTT1=
EXTT2=
EXTT3=
EXTT4=
EXTT5=
EXTT6=
EXTT7=
EXTT8=
EXTT9=
EXTT10=
EXTT11=
EXTT12=
EXTT13=
EXTT14=
EXTT15=
EXTT16=
PLAYORDER=
